<?xml version="1.0" encoding="UTF-8" standalone="no"?>
<!DOCTYPE svg PUBLIC "-//W3C//DTD SVG 1.1//EN"
 "http://www.w3.org/Graphics/SVG/1.1/DTD/svg11.dtd">
<!-- Generated by graphviz version 14.0.4 (20251115.1723)
 -->
<!-- Title: SystemStructure Pages: 1 -->
<svg width="344pt" height="624pt"
 viewBox="0.00 0.00 344.00 624.00" xmlns="http://www.w3.org/2000/svg" xmlns:xlink="http://www.w3.org/1999/xlink">
<g id="graph0" class="graph" transform="scale(1 1) rotate(0) translate(4 620)">
<title>SystemStructure</title>
<polygon fill="white" stroke="none" points="-4,4 -4,-620 340.38,-620 340.38,4 -4,4"/>
<!-- A1 -->
<g id="node1" class="node">
<title>A1</title>
<polygon fill="#ff99ff" stroke="#333333" points="176.25,-616 66.5,-616 66.5,-580 176.25,-580 176.25,-616"/>
<text xml:space="preserve" text-anchor="middle" x="121.38" y="-601.62" font-family="Helvetica,sans-Serif" font-size="10.00">公开比赛事件数据</text>
<text xml:space="preserve" text-anchor="middle" x="121.38" y="-586.62" font-family="Helvetica,sans-Serif" font-size="10.00">(StatsBomb / Kaggle)</text>
</g>
<!-- B1 -->
<g id="node3" class="node">
<title>B1</title>
<polygon fill="#ffffdd" stroke="#333333" points="148.88,-544 93.88,-544 93.88,-508 148.88,-508 148.88,-544"/>
<text xml:space="preserve" text-anchor="middle" x="121.38" y="-524" font-family="Helvetica,sans-Serif" font-size="10.00">数据清洗</text>
</g>
<!-- A1&#45;&gt;B1 -->
<g id="edge1" class="edge">
<title>A1&#45;&gt;B1</title>
<path fill="none" stroke="black" d="M121.38,-579.7C121.38,-572.41 121.38,-563.73 121.38,-555.54"/>
<polygon fill="black" stroke="black" points="124.88,-555.62 121.38,-545.62 117.88,-555.62 124.88,-555.62"/>
</g>
<!-- A2 -->
<g id="node2" class="node">
<title>A2</title>
<polygon fill="#ff99ff" stroke="#333333" points="316.88,-328 261.88,-328 261.88,-290 316.88,-290 316.88,-328"/>
<text xml:space="preserve" text-anchor="middle" x="289.38" y="-314.5" font-family="Helvetica,sans-Serif" font-size="10.00">比赛视频</text>
<text xml:space="preserve" text-anchor="middle" x="289.38" y="-299.5" font-family="Helvetica,sans-Serif" font-size="10.00">(可选)</text>
</g>
<!-- C3 -->
<g id="node9" class="node">
<title>C3</title>
<polygon fill="#ddffdd" stroke="#333333" points="336.38,-254 242.38,-254 242.38,-216 336.38,-216 336.38,-254"/>
<text xml:space="preserve" text-anchor="middle" x="289.38" y="-240.5" font-family="Helvetica,sans-Serif" font-size="10.00">视频动作识别模块</text>
<text xml:space="preserve" text-anchor="middle" x="289.38" y="-225.5" font-family="Helvetica,sans-Serif" font-size="10.00">(可选)</text>
</g>
<!-- A2&#45;&gt;C3 -->
<g id="edge7" class="edge">
<title>A2&#45;&gt;C3</title>
<path fill="none" stroke="black" d="M289.38,-289.83C289.38,-282.55 289.38,-273.98 289.38,-265.83"/>
<polygon fill="black" stroke="black" points="292.88,-265.93 289.38,-255.93 285.88,-265.93 292.88,-265.93"/>
</g>
<!-- B2 -->
<g id="node4" class="node">
<title>B2</title>
<polygon fill="#ffffdd" stroke="#333333" points="148.88,-472 93.88,-472 93.88,-436 148.88,-436 148.88,-472"/>
<text xml:space="preserve" text-anchor="middle" x="121.38" y="-452" font-family="Helvetica,sans-Serif" font-size="10.00">事件抽取</text>
</g>
<!-- B1&#45;&gt;B2 -->
<g id="edge2" class="edge">
<title>B1&#45;&gt;B2</title>
<path fill="none" stroke="black" d="M121.38,-507.7C121.38,-500.41 121.38,-491.73 121.38,-483.54"/>
<polygon fill="black" stroke="black" points="124.88,-483.62 121.38,-473.62 117.88,-483.62 124.88,-483.62"/>
</g>
<!-- B3 -->
<g id="node5" class="node">
<title>B3</title>
<polygon fill="#ffffdd" stroke="#333333" points="179.62,-400 63.12,-400 63.12,-364 179.62,-364 179.62,-400"/>
<text xml:space="preserve" text-anchor="middle" x="121.38" y="-380" font-family="Helvetica,sans-Serif" font-size="10.00">轨迹合并 &amp; 同步时间轴</text>
</g>
<!-- B2&#45;&gt;B3 -->
<g id="edge3" class="edge">
<title>B2&#45;&gt;B3</title>
<path fill="none" stroke="black" d="M121.38,-435.7C121.38,-428.41 121.38,-419.73 121.38,-411.54"/>
<polygon fill="black" stroke="black" points="124.88,-411.62 121.38,-401.62 117.88,-411.62 124.88,-411.62"/>
</g>
<!-- B4 -->
<g id="node6" class="node">
<title>B4</title>
<polygon fill="#ffffdd" stroke="#333333" points="195.75,-328 47,-328 47,-290 195.75,-290 195.75,-328"/>
<text xml:space="preserve" text-anchor="middle" x="121.38" y="-314.5" font-family="Helvetica,sans-Serif" font-size="10.00">特征工程</text>
<text xml:space="preserve" text-anchor="middle" x="121.38" y="-299.5" font-family="Helvetica,sans-Serif" font-size="10.00">(传球链、控球区域、回合特征)</text>
</g>
<!-- B3&#45;&gt;B4 -->
<g id="edge4" class="edge">
<title>B3&#45;&gt;B4</title>
<path fill="none" stroke="black" d="M121.38,-363.81C121.38,-356.59 121.38,-347.97 121.38,-339.77"/>
<polygon fill="black" stroke="black" points="124.88,-339.78 121.38,-329.78 117.88,-339.78 124.88,-339.78"/>
</g>
<!-- C1 -->
<g id="node7" class="node">
<title>C1</title>
<polygon fill="#ddffdd" stroke="#333333" points="123,-254 23.75,-254 23.75,-216 123,-216 123,-254"/>
<text xml:space="preserve" text-anchor="middle" x="73.38" y="-240.5" font-family="Helvetica,sans-Serif" font-size="10.00">战术识别模型</text>
<text xml:space="preserve" text-anchor="middle" x="73.38" y="-225.5" font-family="Helvetica,sans-Serif" font-size="10.00">(决策树 / 随机森林)</text>
</g>
<!-- B4&#45;&gt;C1 -->
<g id="edge5" class="edge">
<title>B4&#45;&gt;C1</title>
<path fill="none" stroke="black" d="M109.26,-289.83C104.02,-281.96 97.76,-272.57 91.94,-263.85"/>
<polygon fill="black" stroke="black" points="94.95,-262.05 86.49,-255.67 89.12,-265.93 94.95,-262.05"/>
</g>
<!-- C2 -->
<g id="node8" class="node">
<title>C2</title>
<polygon fill="#ddffdd" stroke="#333333" points="224.12,-254 140.62,-254 140.62,-216 224.12,-216 224.12,-254"/>
<text xml:space="preserve" text-anchor="middle" x="182.38" y="-240.5" font-family="Helvetica,sans-Serif" font-size="10.00">关键事件检测</text>
<text xml:space="preserve" text-anchor="middle" x="182.38" y="-225.5" font-family="Helvetica,sans-Serif" font-size="10.00">(基于事件/规则)</text>
</g>
<!-- B4&#45;&gt;C2 -->
<g id="edge6" class="edge">
<title>B4&#45;&gt;C2</title>
<path fill="none" stroke="black" d="M136.77,-289.83C143.65,-281.71 151.91,-271.96 159.49,-263.01"/>
<polygon fill="black" stroke="black" points="162,-265.46 165.8,-255.57 156.66,-260.94 162,-265.46"/>
</g>
<!-- D1 -->
<g id="node10" class="node">
<title>D1</title>
<polygon fill="#ccffec" stroke="#333333" points="64.75,-180 0,-180 0,-144 64.75,-144 64.75,-180"/>
<text xml:space="preserve" text-anchor="middle" x="32.38" y="-160" font-family="Helvetica,sans-Serif" font-size="10.00">传球网络图</text>
</g>
<!-- C1&#45;&gt;D1 -->
<g id="edge8" class="edge">
<title>C1&#45;&gt;D1</title>
<path fill="none" stroke="black" d="M62.82,-215.72C58.36,-208 53.08,-198.86 48.18,-190.38"/>
<polygon fill="black" stroke="black" points="51.26,-188.71 43.23,-181.8 45.2,-192.21 51.26,-188.71"/>
</g>
<!-- D2 -->
<g id="node11" class="node">
<title>D2</title>
<polygon fill="#ccffec" stroke="#333333" points="147.75,-180 83,-180 83,-144 147.75,-144 147.75,-180"/>
<text xml:space="preserve" text-anchor="middle" x="115.38" y="-160" font-family="Helvetica,sans-Serif" font-size="10.00">场上热力图</text>
</g>
<!-- C1&#45;&gt;D2 -->
<g id="edge9" class="edge">
<title>C1&#45;&gt;D2</title>
<path fill="none" stroke="black" d="M84.19,-215.72C88.75,-208 94.16,-198.86 99.18,-190.38"/>
<polygon fill="black" stroke="black" points="102.18,-192.18 104.26,-181.79 96.16,-188.62 102.18,-192.18"/>
</g>
<!-- D3 -->
<g id="node12" class="node">
<title>D3</title>
<polygon fill="#ccffec" stroke="#333333" points="282.62,-180 166.12,-180 166.12,-144 282.62,-144 282.62,-180"/>
<text xml:space="preserve" text-anchor="middle" x="224.38" y="-160" font-family="Helvetica,sans-Serif" font-size="10.00">事件时间轴 &amp; 回合重放</text>
</g>
<!-- C2&#45;&gt;D3 -->
<g id="edge10" class="edge">
<title>C2&#45;&gt;D3</title>
<path fill="none" stroke="black" d="M193.19,-215.72C197.75,-208 203.16,-198.86 208.18,-190.38"/>
<polygon fill="black" stroke="black" points="211.18,-192.18 213.26,-181.79 205.16,-188.62 211.18,-192.18"/>
</g>
<!-- C3&#45;&gt;D3 -->
<g id="edge11" class="edge">
<title>C3&#45;&gt;D3</title>
<path fill="none" stroke="black" d="M272.64,-215.72C265.11,-207.5 256.1,-197.65 247.91,-188.71"/>
<polygon fill="black" stroke="black" points="250.74,-186.62 241.41,-181.6 245.58,-191.34 250.74,-186.62"/>
</g>
<!-- E2 -->
<g id="node14" class="node">
<title>E2</title>
<polygon fill="#ddddff" stroke="#333333" points="160.88,-108 69.88,-108 69.88,-72 160.88,-72 160.88,-108"/>
<text xml:space="preserve" text-anchor="middle" x="115.38" y="-93.62" font-family="Helvetica,sans-Serif" font-size="10.00">后端 API</text>
<text xml:space="preserve" text-anchor="middle" x="115.38" y="-78.62" font-family="Helvetica,sans-Serif" font-size="10.00">(Flask / FastAPI)</text>
</g>
<!-- D1&#45;&gt;E2 -->
<g id="edge12" class="edge">
<title>D1&#45;&gt;E2</title>
<path fill="none" stroke="black" d="M52.89,-143.7C62.97,-135.2 75.28,-124.81 86.31,-115.51"/>
<polygon fill="black" stroke="black" points="88.26,-118.45 93.65,-109.32 83.75,-113.09 88.26,-118.45"/>
</g>
<!-- D2&#45;&gt;E2 -->
<g id="edge13" class="edge">
<title>D2&#45;&gt;E2</title>
<path fill="none" stroke="black" d="M115.38,-143.7C115.38,-136.41 115.38,-127.73 115.38,-119.54"/>
<polygon fill="black" stroke="black" points="118.88,-119.62 115.38,-109.62 111.88,-119.62 118.88,-119.62"/>
</g>
<!-- D3&#45;&gt;E2 -->
<g id="edge14" class="edge">
<title>D3&#45;&gt;E2</title>
<path fill="none" stroke="black" d="M197.15,-143.52C183.39,-134.68 166.51,-123.84 151.66,-114.3"/>
<polygon fill="black" stroke="black" points="153.83,-111.54 143.53,-109.08 150.05,-117.43 153.83,-111.54"/>
</g>
<!-- E1 -->
<g id="node13" class="node">
<title>E1</title>
<polygon fill="#ddddff" stroke="#333333" points="87.62,-36 13.12,-36 13.12,0 87.62,0 87.62,-36"/>
<text xml:space="preserve" text-anchor="middle" x="50.38" y="-21.62" font-family="Helvetica,sans-Serif" font-size="10.00">Web 前端</text>
<text xml:space="preserve" text-anchor="middle" x="50.38" y="-6.62" font-family="Helvetica,sans-Serif" font-size="10.00">(React / Vue)</text>
</g>
<!-- E2&#45;&gt;E1 -->
<g id="edge15" class="edge">
<title>E2&#45;&gt;E1</title>
<path fill="none" stroke="black" d="M99.31,-71.7C91.67,-63.47 82.4,-53.48 73.98,-44.42"/>
<polygon fill="black" stroke="black" points="76.66,-42.16 67.29,-37.21 71.53,-46.92 76.66,-42.16"/>
</g>
<!-- E3 -->
<g id="node15" class="node">
<title>E3</title>
<polygon fill="#ddddff" stroke="#333333" points="256.88,-36 105.88,-36 105.88,0 256.88,0 256.88,-36"/>
<text xml:space="preserve" text-anchor="middle" x="181.38" y="-16" font-family="Helvetica,sans-Serif" font-size="10.00">文件导出：PNG / JSON / 报告</text>
</g>
<!-- E2&#45;&gt;E3 -->
<g id="edge16" class="edge">
<title>E2&#45;&gt;E3</title>
<path fill="none" stroke="black" d="M131.69,-71.7C139.44,-63.47 148.86,-53.48 157.41,-44.42"/>
<polygon fill="black" stroke="black" points="159.9,-46.88 164.21,-37.21 154.8,-42.08 159.9,-46.88"/>
</g>
</g>
</svg>
